# Blender v3.0.0 OBJ File: 'base.blend'
# www.blender.org
mtllib water.mtl
o TileWater_Plane
v 0.000000 -0.200000 0.000000
v 1.000000 -0.200000 0.000000
v 0.000000 -0.200000 -1.000000
v 1.000000 -0.200000 -1.000000
v 0.000000 0.000000 -1.000000
v 0.000000 0.000000 0.000000
v 1.000000 0.000000 0.000000
v 1.000000 0.000000 -1.000000
vt 0.545455 0.454545
vt 0.090909 0.909091
vt 0.090909 0.454545
vt 0.545455 0.454545
vt 1.000000 0.000000
vt 1.000000 0.454545
vt 0.000000 0.454545
vt 0.636364 0.909091
vt 0.636364 0.454545
vt 0.000000 0.000000
vt 0.090909 0.000000
vt 0.727273 0.909091
vt 0.636364 0.454545
vt 0.727273 0.454545
vt 0.545455 0.909091
vt 0.545455 0.000000
vt 0.000000 0.909091
vt 0.545455 0.909091
vt 0.636364 0.909091
vn 0.0000 -1.0000 0.0000
vn 0.0000 1.0000 0.0000
vn 0.0000 0.0000 1.0000
vn 1.0000 0.0000 0.0000
vn -1.0000 0.0000 0.0000
vn 0.0000 0.0000 -1.0000
usemtl None
s off
f 3/1/1 2/2/1 1/3/1
f 7/4/2 5/5/2 6/6/2
f 2/2/3 6/7/3 1/3/3
f 4/8/4 7/4/4 2/9/4
f 1/3/5 5/10/5 3/11/5
f 3/12/6 8/13/6 4/14/6
f 3/1/1 4/15/1 2/2/1
f 7/4/2 8/16/2 5/5/2
f 2/2/3 7/17/3 6/7/3
f 4/8/4 8/18/4 7/4/4
f 1/3/5 6/7/5 5/10/5
f 3/12/6 5/19/6 8/13/6
