# Blender v2.92.0 OBJ File: ''
# www.blender.org
mtllib test_object.mtl
o Cube
v 1.000000 1.000000 -1.000000
v 1.000000 -1.000000 -1.000000
v 1.000000 1.000000 1.000000
v 1.000000 -1.000000 1.000000
v -1.000000 1.000000 -1.000000
v -1.000000 -1.000000 -1.000000
v -1.000000 1.000000 1.000000
v -1.000000 -1.000000 1.000000
v 2.000000 2.000000 2.000000
v -2.000000 2.000000 2.000000
v 2.000000 2.000000 -2.000000
v -2.000000 2.000000 -2.000000
v -0.500000 -2.000000 -0.500000
v -0.500000 -2.000000 0.500000
v 0.500000 -2.000000 -0.500000
v 0.500000 -2.000000 0.500000
vt 0.625000 0.250000
vt 0.625000 0.500000
vt 0.625000 0.500000
vt 0.625000 0.750000
vt 0.375000 1.000000
vt 0.375000 0.750000
vt 0.625000 0.000000
vt 0.375000 0.250000
vt 0.375000 0.000000
vt 0.375000 0.500000
vt 0.375000 0.250000
vt 0.875000 0.500000
vt 0.625000 0.750000
vt 0.625000 1.000000
vt 0.625000 1.000000
vt 0.625000 0.250000
vt 0.375000 0.500000
vt 0.125000 0.750000
vt 0.125000 0.500000
vt 0.375000 0.750000
vt 0.375000 0.000000
vt 0.875000 0.750000
vt 0.625000 0.000000
vt 0.375000 1.000000
vn 0.0000 -0.7071 -0.7071
vn 0.0000 0.0000 1.0000
vn -1.0000 0.0000 0.0000
vn 0.0000 -0.4472 -0.8944
vn 1.0000 0.0000 0.0000
vn 0.0000 0.0000 -1.0000
vn 0.0000 1.0000 0.0000
vn 0.0000 -0.7071 0.7071
vn -0.7071 -0.7071 0.0000
vn 0.7071 -0.7071 0.0000
vn 0.0000 -1.0000 0.0000
vn 0.0000 -0.4472 0.8944
vn -0.8944 -0.4472 0.0000
vn 0.8944 -0.4472 0.0000
usemtl Material
s off
f 5/1/1 11/2/1 1/3/1
f 3/4/2 8/5/2 4/6/2
f 7/7/3 6/8/3 8/9/3
f 2/10/4 13/11/4 6/8/4
f 1/3/5 4/6/5 2/10/5
f 5/1/6 2/10/6 6/8/6
f 12/12/7 9/13/7 11/2/7
f 3/4/8 10/14/8 7/15/8
f 7/7/9 12/16/9 5/1/9
f 1/3/10 9/13/10 3/4/10
f 15/17/11 14/18/11 13/19/11
f 8/5/12 16/20/12 4/6/12
f 6/8/13 14/21/13 8/9/13
f 4/6/14 15/17/14 2/10/14
f 5/1/1 12/16/1 11/2/1
f 3/4/2 7/15/2 8/5/2
f 7/7/3 5/1/3 6/8/3
f 2/10/4 15/17/4 13/11/4
f 1/3/5 3/4/5 4/6/5
f 5/1/6 1/3/6 2/10/6
f 12/12/7 10/22/7 9/13/7
f 3/4/8 9/13/8 10/14/8
f 7/7/9 10/23/9 12/16/9
f 1/3/10 11/2/10 9/13/10
f 15/17/11 16/20/11 14/18/11
f 8/5/12 14/24/12 16/20/12
f 6/8/13 13/11/13 14/21/13
f 4/6/14 16/20/14 15/17/14
